# xmcd CD database file
#
# Track frame offsets:
#	150
#	16435
#	28346
#	44234
#	58160
#	73851
#	88573
#	103725
#	118612
#	133616
#	146919
#	161346
#	174841
#	188659
#	204255
#	219827
#	232945
#	245247
#	260606
#
# Disc length: 3673 seconds
#
# Revision: 0
# Processed by: cddbd v1.5.2PL0 Copyright (c) Steve Scherf et al.
# Submitted via: CDex 1.81
#
DISCID=190e5713
DTITLE=Mickey Gilley - The Definitive Hits Collection [CD2]
DYEAR=2016
DGENRE=Country
TTITLE0=Stand by Me [Single Version]
TTITLE1=That's All That Matters
TTITLE2=A Headache Tomorrow (Or a Heartache Tonight)
TTITLE3=You Don't Know Me
TTITLE4=Lonely Nights
TTITLE5=Tears of the Lonely
TTITLE6=Put Your Dreams Away
TTITLE7=Talk to Me
TTITLE8=Fool for Your Love
TTITLE9=Paradise Tonight
TTITLE10=Your Love Shines Through
TTITLE11=You've Really Got a Hold on Me
TTITLE12=Candy Man
TTITLE13=Too Good to Stop Now
TTITLE14=Quittin' Time
TTITLE15=It Ain't Gonna Worry My Mind
TTITLE16=You've Got Something On Your Mind
TTITLE17=Your Memory Ain't What It Used to Be
TTITLE18=Doo-Wah Days
EXTD=YEAR: 2016
EXTT0=
EXTT1=
EXTT2=
EXTT3=
EXTT4=
EXTT5=
EXTT6=
EXTT7=
EXTT8=
EXTT9=
EXTT10=
EXTT11=
EXTT12=
EXTT13=
EXTT14=
EXTT15=
EXTT16=
EXTT17=
EXTT18=
PLAYORDER=
